<svg preserveAspectRatio="none" overflow="visible" style="display: block;" width="36.6398" height="44.2011" viewBox="0 0 36.6398 44.2011" fill="none" xmlns="http://www.w3.org/2000/svg">
<g id="Group 1171275506">
<g id="Group 2">
<path id="Ellipse 3" d="M29.1982 38.3083C26.4766 39.6942 25.1318 42.5094 25.1318 42.5094C25.1318 42.5094 28.1996 43.0775 30.9212 41.6916C33.6427 40.3056 34.9876 37.4904 34.9876 37.4904C34.9876 37.4904 31.9198 36.9223 29.1982 38.3083Z" fill="url(#paint0_linear_9690_61426)"/>
<path id="Ellipse 6" d="M21.8336 35.5182C18.95 36.5248 17.2381 39.133 17.2381 39.133C17.2381 39.133 20.2013 40.1094 23.0848 39.1029C25.9684 38.0963 27.6803 35.4881 27.6803 35.4881C27.6803 35.4881 24.7171 34.5117 21.8336 35.5182Z" fill="url(#paint1_linear_9690_61426)"/>
<path id="Ellipse 7" d="M15.6393 31.1656C12.9544 31.7719 11.1547 33.9323 11.1547 33.9323C11.1547 33.9323 13.7081 35.1096 16.3931 34.5033C19.078 33.897 20.8777 31.7367 20.8777 31.7367C20.8777 31.7367 18.3243 30.5593 15.6393 31.1656Z" fill="url(#paint2_linear_9690_61426)"/>
<path id="Ellipse 9" d="M9.90845 24.899C7.15618 24.8594 4.90044 26.5381 4.90044 26.5381C4.90044 26.5381 7.10702 28.2809 9.85929 28.3204C12.6116 28.36 14.8673 26.6813 14.8673 26.6813C14.8673 26.6813 12.6607 24.9385 9.90845 24.899Z" fill="url(#paint3_linear_9690_61426)"/>
<path id="Ellipse 11" d="M5.55854 17.4486C2.85954 16.9083 0.335721 18.1479 0.335721 18.1479C0.335721 18.1479 2.18784 20.2635 4.88684 20.8039C7.58585 21.3442 10.1097 20.1046 10.1097 20.1046C10.1097 20.1046 8.25755 17.989 5.55854 17.4486Z" fill="url(#paint4_linear_9690_61426)"/>
<path id="Ellipse 13" d="M4.65792 9.06705C3.04996 7.945 1.04901 8.03485 1.04901 8.03485C1.04901 8.03485 1.65509 9.94391 3.26305 11.066C4.87101 12.188 6.87196 12.0982 6.87196 12.0982C6.87196 12.0982 6.26588 10.1891 4.65792 9.06705Z" fill="url(#paint5_linear_9690_61426)"/>
<path id="Ellipse 4" d="M30.747 33.5574C32.133 36.279 34.9482 37.6238 34.9482 37.6238C34.9482 37.6238 35.5163 34.5561 34.1303 31.8345C32.7443 29.1129 29.9291 27.7681 29.9291 27.7681C29.9291 27.7681 29.361 30.8359 30.747 33.5574Z" fill="url(#paint6_linear_9690_61426)"/>
<path id="Ellipse 5" d="M24.0561 30.995C25.0626 33.8785 27.6709 35.5904 27.6709 35.5904C27.6709 35.5904 28.6473 32.6272 27.6407 29.7437C26.6342 26.8602 24.0259 25.1483 24.0259 25.1483C24.0259 25.1483 23.0496 28.1114 24.0561 30.995Z" fill="url(#paint7_linear_9690_61426)"/>
<path id="Ellipse 8" d="M18.0921 27.3403C18.6984 30.0252 20.8588 31.8249 20.8588 31.8249C20.8588 31.8249 22.0362 29.2715 21.4299 26.5866C20.8236 23.9017 18.6632 22.1019 18.6632 22.1019C18.6632 22.1019 17.4858 24.6554 18.0921 27.3403Z" fill="url(#paint8_linear_9690_61426)"/>
<path id="Ellipse 10" d="M13.1877 21.756C13.1482 24.5083 14.8268 26.764 14.8268 26.764C14.8268 26.764 16.5696 24.5575 16.6092 21.8052C16.6487 19.053 14.97 16.7972 14.97 16.7972C14.97 16.7972 13.2273 19.0038 13.1877 21.756Z" fill="url(#paint9_linear_9690_61426)"/>
<path id="Ellipse 12" d="M9.35738 14.9567C8.81705 17.6557 10.0567 20.1795 10.0567 20.1795C10.0567 20.1795 12.1723 18.3274 12.7126 15.6284C13.2529 12.9294 12.0133 10.4056 12.0133 10.4056C12.0133 10.4056 9.8977 12.2577 9.35738 14.9567Z" fill="url(#paint10_linear_9690_61426)"/>
<path id="Ellipse 14" d="M7.84405 8.52498C6.72199 10.1329 6.81184 12.1339 6.81184 12.1339C6.81184 12.1339 8.72091 11.5278 9.84297 9.91984C10.965 8.31189 10.8752 6.31096 10.8752 6.31096C10.8752 6.31096 8.96611 6.91703 7.84405 8.52498Z" fill="url(#paint11_linear_9690_61426)"/>
<path id="Ellipse 15" d="M4.81606 3.55023C4.81606 5.51097 6.0348 7.10047 6.0348 7.10047C6.0348 7.10047 7.25355 5.51097 7.25355 3.55023C7.25355 1.58949 6.0348 0 6.0348 0C6.0348 0 4.81606 1.58949 4.81606 3.55023Z" fill="url(#paint12_linear_9690_61426)"/>
</g>
<g id="Subtract">
</g>
</g>
<defs>
<linearGradient id="paint0_linear_9690_61426" x1="25.7705" y1="43.7635" x2="25.5918" y2="36.4503" gradientUnits="userSpaceOnUse">
<stop stop-color="#FFF1D8"/>
<stop offset="1" stop-color="#FF9803"/>
</linearGradient>
<linearGradient id="paint1_linear_9690_61426" x1="17.7019" y1="40.4617" x2="18.5105" y2="33.1911" gradientUnits="userSpaceOnUse">
<stop stop-color="#FFF1D8"/>
<stop offset="1" stop-color="#FF9803"/>
</linearGradient>
<linearGradient id="paint2_linear_9690_61426" x1="11.434" y1="35.1695" x2="12.9018" y2="28.7419" gradientUnits="userSpaceOnUse">
<stop stop-color="#FFF1D8"/>
<stop offset="1" stop-color="#FF9803"/>
</linearGradient>
<linearGradient id="paint3_linear_9690_61426" x1="4.88222" y1="27.8063" x2="7.81484" y2="21.9015" gradientUnits="userSpaceOnUse">
<stop stop-color="#FFF1D8"/>
<stop offset="1" stop-color="#FF9803"/>
</linearGradient>
<linearGradient id="paint4_linear_9690_61426" x1="0.0867418" y1="19.3916" x2="4.04609" y2="14.1199" gradientUnits="userSpaceOnUse">
<stop stop-color="#FFF1D8"/>
<stop offset="1" stop-color="#FF9803"/>
</linearGradient>
<linearGradient id="paint5_linear_9690_61426" x1="0.531977" y1="8.77578" x2="4.6194" y2="6.46283" gradientUnits="userSpaceOnUse">
<stop stop-color="#FFF1D8"/>
<stop offset="1" stop-color="#FF9803"/>
</linearGradient>
<linearGradient id="paint6_linear_9690_61426" x1="36.2023" y1="36.9852" x2="28.889" y2="37.1638" gradientUnits="userSpaceOnUse">
<stop stop-color="#FFF1D8"/>
<stop offset="1" stop-color="#FF9803"/>
</linearGradient>
<linearGradient id="paint7_linear_9690_61426" x1="28.9996" y1="35.1266" x2="21.729" y2="34.318" gradientUnits="userSpaceOnUse">
<stop stop-color="#FFF1D8"/>
<stop offset="1" stop-color="#FF9803"/>
</linearGradient>
<linearGradient id="paint8_linear_9690_61426" x1="22.096" y1="31.5456" x2="15.6685" y2="30.0778" gradientUnits="userSpaceOnUse">
<stop stop-color="#FFF1D8"/>
<stop offset="1" stop-color="#FF9803"/>
</linearGradient>
<linearGradient id="paint9_linear_9690_61426" x1="16.0951" y1="26.7822" x2="10.1902" y2="23.8496" gradientUnits="userSpaceOnUse">
<stop stop-color="#FFF1D8"/>
<stop offset="1" stop-color="#FF9803"/>
</linearGradient>
<linearGradient id="paint10_linear_9690_61426" x1="11.3003" y1="20.4284" x2="6.02862" y2="16.4691" gradientUnits="userSpaceOnUse">
<stop stop-color="#FFF1D8"/>
<stop offset="1" stop-color="#FF9803"/>
</linearGradient>
<linearGradient id="paint11_linear_9690_61426" x1="7.55278" y1="12.6509" x2="5.23986" y2="8.56348" gradientUnits="userSpaceOnUse">
<stop stop-color="#FFF1D8"/>
<stop offset="1" stop-color="#FF9803"/>
</linearGradient>
<linearGradient id="paint12_linear_9690_61426" x1="6.93831" y1="7.10047" x2="2.70246" y2="5.07206" gradientUnits="userSpaceOnUse">
<stop stop-color="#FFF1D8"/>
<stop offset="1" stop-color="#FF9803"/>
</linearGradient>
</defs>
</svg>
